<svg xmlns="http://www.w3.org/2000/svg" viewBox="0 0 512 512" width="512" height="512" role="img" aria-label="超音波データ通信">
  <defs>
    <radialGradient id="bg" cx="50%" cy="40%" r="78%">
      <stop offset="0" stop-color="#18232F"/>
      <stop offset="1" stop-color="#080D13"/>
    </radialGradient>
    <radialGradient id="glow" cx="50%" cy="50%" r="50%">
      <stop offset="0" stop-color="#F2A93B" stop-opacity="0.30"/>
      <stop offset="0.55" stop-color="#F2A93B" stop-opacity="0.07"/>
      <stop offset="1" stop-color="#F2A93B" stop-opacity="0"/>
    </radialGradient>
  </defs>
  <rect width="512" height="512" rx="112" ry="112" fill="url(#bg)"/>
  <g transform="translate(256.0,256.0) scale(1.18) translate(-256.0,-256.0)">
    <circle cx="256.0" cy="256.0" r="180" fill="url(#glow)"/>
    <path d="M 169.32 323.72 A 110 110 0 0 1 169.32 188.28" fill="none" stroke="#4FD1C5" stroke-opacity="1.0" stroke-width="26" stroke-linecap="round"/>
    <path d="M 123.61 359.43 A 168 168 0 0 1 123.61 152.57" fill="none" stroke="#4FD1C5" stroke-opacity="0.55" stroke-width="22" stroke-linecap="round"/>
    <path d="M 342.68 188.28 A 110 110 0 0 1 342.68 323.72" fill="none" stroke="#4FD1C5" stroke-opacity="1.0" stroke-width="26" stroke-linecap="round"/>
    <path d="M 388.39 152.57 A 168 168 0 0 1 388.39 359.43" fill="none" stroke="#4FD1C5" stroke-opacity="0.55" stroke-width="22" stroke-linecap="round"/>
    <rect x="241.0" y="151.0" width="30" height="210" rx="15.0" fill="#F2A93B"/>
  </g>
</svg>
